DataType=double
version=3
OpenSimVersion=4.5-2023-11-26-efcdfd3eb
endheader
time	EMG01_right_gast_med	EMG02_right_glut_max	EMG03_left_gast_med	EMG04_left_glut_max	EMG05_right_glut_med	EMG06_right_bic_fem	EMG07_right_rect_fem	EMG08_right_vast_lat	EMG09_right_vast_med	EMG10_right_tens_fasc_lat	EMG11_left_glut_med	EMG12_left_bic_fem	EMG13_left_rect_fem	EMG14_left_vast_lat	EMG15_left_vast_med	EMG16_left_tens_fasc_lat
1.26	15.09958892923789	42.54832125076985	94.18589782216894	16.2815502230808	70.1547938738731	60.53136868560075	6.040507013988174	18.25558426744944	40.18020019234969	35.64873329407409	7.55218106407293	7.808039337049125	7.201794382890453	6.794892990720474	25.46271050902804	5.277288104738458
1.27	15.70064879147652	43.52847798672706	91.46404945475726	17.41599788316379	76.27721866318035	62.71513020414058	6.324463221401933	19.02076824447696	43.50004068119149	38.30052755502705	7.34354241758723	7.867561404225099	7.271826851650057	7.10855245873991	26.30965698053907	4.432557989796333
1.28	16.32753389249515	44.69634273620047	88.40757169023169	18.80174756395807	82.60873085809583	64.72058284145778	6.601989390079051	19.74041483259728	46.82721469306485	41.01153112987621	7.143745618513636	7.879999940257861	7.330429237667603	7.423105615489762	27.14799448203006	3.994376002184647
1.29	16.98887974710733	46.02963169614229	85.04241553406682	20.43341981605412	89.05788919013482	66.52471029847072	6.869223087894005	20.40557797875054	50.12814624195622	43.75405213442712	6.952884162713013	7.845612135088635	7.375731491140813	7.733886281998138	27.95463076466728	3.970335657032055
1.3	17.6934943974893	47.50327545369849	81.39827821340334	22.30246879563683	95.53327649560524	68.10612446830648	7.122500631719082	21.00786446131058	53.36896144456772	46.49923078641286	6.77101354889956	7.765461628983771	7.40610411793699	8.036582515303117	28.70597456859907	4.364814716214261
1.31	18.4503470566811	49.08977455224654	77.50801515735036	24.39717142698473	101.9447602669691	69.44553537965842	7.358408932125554	21.53958446967201	56.51594875495854	49.21740659083297	6.598139450036634	7.64136858316542	7.420150874000327	8.327241020427961	29.37816484216123	5.178896710595783
1.32	19.26856781440771	50.75959533880533	73.4070086574458	26.70266701355062	108.2047374433646	70.52620995924833	7.57383445293331	21.99389486038494	59.53602640794974	51.87851061768194	6.434209533350443	7.475851716495066	7.416700585377777	8.602267805882478	29.94732624644389	6.410307628901816
1.33	20.15745506945507	52.48160244488974	69.13251062839491	29.2010495244796	114.2293411995523	71.33440349173522	7.766008892339141	22.36493133902961	62.39720798569299	54.45247896396403	6.279109053581937	7.272064556608196	7.394798591980085	8.858426426335674	30.38985125340814	8.053369246582108
1.34	21.12648660302137	54.22352337276829	64.72297653170679	31.87151395261752	119.9395860181036	71.85974623280653	7.932551190636647	22.64792555461269	65.06905676922707	56.90968270503405	6.13266010769206	7.033727874689074	7.353698412705615	9.092835211144878	30.68270886913491	10.09897077250929
1.35	22.1853295982075	55.95243961941681	60.21740663637794	34.69055725318913	125.2624260500191	72.09556705466966	8.071505415644042	22.83930279824604	67.52311991186465	59.22136862303756	5.994624273168122	6.765059941389421	7.292854316235375	9.302964884958172	30.80377956665751	12.53456069645119
1.36	23.34384448905265	57.63529760386229	55.65470934645352	37.6322334421012	130.1317006476129	72.03913671177301	8.181374023491209	22.93675584750143	69.73333423821057	61.36010373508395	5.864708284118486	6.470705921522923	7.211915475210751	9.486637896851121	30.73221536827038	15.34416092943075
1.37	24.61207740219957	59.23943128792657	51.07309934388576	40.6684614879569	134.4889414388276	71.69181611114544	8.261145967231071	22.93929082293464	71.67639627125023	63.30021494733371	5.742572424249846	6.155667448753584	7.110722261276326	9.642030557291424	30.44882321835177	18.50840551106677
1.38	26.00023624405039	60.73308678661964	46.50954109073558	43.76938365925827	138.2840195052899	71.05910022761535	8.310319130892017	22.84724210084979	73.33208968993834	65.01821305463908	5.627841393336793	5.825233182268977	6.989305038252557	9.767678772350596	29.93646891557472	22.00460633422763
1.39	27.51864619691792	62.08593778704294	41.99924626061922	46.90377090375206	141.4756194323772	70.15055480928677	8.328916570371506	22.66225549474261	74.68356383726248	66.49318842694149	5.520117468788559	5.484910921207521	6.84788559191577	9.86248782156308	29.18049789745015	25.80684858874978
1.4	29.17768147360596	63.26957971044241	37.57523210097177	50.03947058606929	144.0315370200036	68.97964875875253	8.317495997863963	22.38724157645455	75.71755715957232	67.70716519852299	5.418995782276283	5.140361635161866	6.68688115600643	9.925746285488236	28.16916799187574	29.88611894613469
1.41	30.98767159662809	64.25799042883821	33.26794632055272	53.14389049779344	145.9288065781473	67.56348910063183	8.27715187179423	22.02630314637396	76.42455967793148	68.64540241413205	5.324081453449769	4.797335578482347	6.50691087582144	9.957143901494415	26.89408790356741	34.21046974235487
1.42	32.95878206266556	65.02794584373629	29.10496249423971	56.18451142653681	147.1536704740305	65.92246812547535	8.209509468135979	21.58464178575304	76.7989093764151	69.29663420252058	5.235008197031555	4.461610508452598	6.308804461138216	9.956792811175301	25.35065388074449	38.74522241346604
1.43	35.10087063141125	65.55937971928562	25.11074810774776	59.12941863564941	147.7014075993439	64.07983425416091	8.116710522871751	21.06844825631531	76.83881939190751	69.65324562409305	5.151457882110765	4.138931933926179	6.093612669329314	9.925251352019991	23.53847589516	43.45321314832855
1.44	37.42332124200605	65.83567899202902	21.30650545451617	61.94784047352159	147.5760391639726	62.06119976037233	8.001390416833797	20.48478078235274	76.54633592039448	69.71138518242624	5.073180407992369	3.834955296018735	5.862619110317744	9.863549226248455	21.46178382753644	48.29508311910234
1.45	39.93485776373805	65.84390823751509	17.71008386682132	64.61068038285563	146.7899305771728	59.89399999080829	7.866647259373782	19.84143435241926	75.92723009453361	69.47101827668973	5.000013199970478	3.555190023469978	5.617352703926171	9.773212542349484	19.12980354203836	53.22961468787364
